<svg xmlns="http://www.w3.org/2000/svg" viewBox="0 0 64 64" fill="none">
  <defs>
    <linearGradient id="b" x1="32" y1="6" x2="32" y2="56" gradientUnits="userSpaceOnUse">
      <stop stop-color="#8b5cf6"/>
      <stop offset="1" stop-color="#6366f1"/>
    </linearGradient>
    <linearGradient id="l" x1="36" y1="10" x2="54" y2="2" gradientUnits="userSpaceOnUse">
      <stop stop-color="#4ade80"/>
      <stop offset="1" stop-color="#22c55e"/>
    </linearGradient>
  </defs>

  <!-- Bulb -->
  <path d="M32 6C19.85 6 10 15.85 10 28c0 7.73 4 14.55 10 18.4V50h24v-3.6C50 42.55 54 35.73 54 28 54 15.85 44.15 6 32 6z" fill="url(#b)"/>

  <!-- Base -->
  <rect x="20" y="50" width="24" height="4" rx="2" fill="#4f46e5"/>
  <rect x="22" y="55" width="20" height="3.5" rx="1.75" fill="#4338ca"/>
  <path d="M24 59.5h16c0 3-3.5 4.5-8 4.5s-8-1.5-8-4.5z" fill="#3730a3"/>

  <!-- Leaf -->
  <path d="M36 12c3-6 12-11 20-9-2 8-10 14-20 9z" fill="url(#l)"/>
  <path d="M36 12c5-4 13-8 20-9" stroke="#16a34a" stroke-width="2" fill="none" stroke-linecap="round"/>
</svg>
